<svg viewBox="0 0 252 229" xmlns="http://www.w3.org/2000/svg">
  <g transform="matrix(2.03269,1.17357,-1.17357,2.03269,-178.381,-225.614)">
    <path
      d="M184.682,6.835C190.383,6.835 228.322,28.739 231.172,33.676C234.022,38.613 234.022,82.421 231.172,87.358C228.322,92.295 190.383,114.199 184.682,114.199C178.982,114.199 141.042,92.295 138.192,87.358C135.342,82.421 135.342,38.613 138.192,33.676C141.042,28.739 178.982,6.835 184.682,6.835Z"
      style="fill:rgb(91,119,205);" />
  </g>
  <g transform="matrix(2.04599,1.18125,1.18125,-2.04599,-232.05,115.322)">
    <path
      d="M131,30.626C135.248,30.626 163.517,46.948 165.641,50.626C167.765,54.305 167.765,86.948 165.641,90.626C163.517,94.305 135.248,110.626 131,110.626L131,30.626Z"
      style="fill:white;fill-opacity:0.4;" />
  </g>
  <g transform="matrix(2.04599,1.18125,1.18125,-2.04599,-232.05,115.322)">
    <path
      d="M131,110.626C126.752,110.626 98.483,94.305 96.359,90.626C94.235,86.948 94.235,54.305 96.359,50.626C98.483,46.948 126.752,30.626 131,30.626L131,110.626Z"
      style="fill:white;fill-opacity:0.2;" />
  </g>
  <g transform="matrix(1.92036,1.10872,1.85633,-3.21526,-333.559,500.351)">
    <path
      d="M92.686,154.552C99.034,154.552 131,165.878 131,168.127C131,170.376 99.034,181.702 92.686,181.702C86.338,181.702 54.372,170.376 54.372,168.127C54.372,165.878 86.338,154.552 92.686,154.552Z"
      style="fill:white;fill-opacity:0.2;" />
  </g>
</svg>
